# Blender v2.78 (sub 0) OBJ File: ''
# www.blender.org
mtllib bsp.mtl
o Cube.001
v 5.928257 -3.936883 -3.511127
v 5.928257 -3.936883 4.927096
v -2.509968 -3.936883 4.927095
v -2.509966 -3.936883 -3.511129
v 5.928259 4.501341 -3.511125
v 5.928254 4.501341 4.927099
v -2.509969 4.501341 4.927095
v -2.509967 4.501341 -3.511127
vn 0.0000 -1.0000 -0.0000
vn 0.0000 1.0000 -0.0000
vn 1.0000 -0.0000 0.0000
vn -0.0000 -0.0000 1.0000
vn -1.0000 -0.0000 -0.0000
vn 0.0000 0.0000 -1.0000
vt 0.0000 -1.0000 -0.0000
vt 0.0000 1.0000 -0.0000
vt 1.0000 -0.0000 0.0000
vt -0.0000 -0.0000 1.0000
vt -1.0000 -0.0000 -0.0000
vt 0.0000 0.0000 -1.0000
usemtl Material
s off
f 1/1/1 2/1/1 3/1/1 4/1/1
f 5/2/2 8/2/2 7/2/2 6/2/2
f 1/3/3 5/3/3 6/3/3 2/3/3
f 2/4/4 6/4/4 7/4/4 3/4/4
f 3/5/5 7/5/5 8/5/5 4/5/5
f 5/6/6 1/6/6 4/6/6 8/6/6
o Cube
v 1.313099 -1.648662 -0.750077
v 1.313099 -1.648662 2.415872
v -1.852850 -1.648662 2.415872
v -1.852849 -1.648662 -0.750077
v 1.313100 1.517287 -0.750076
v 1.313098 1.517287 2.415873
v -1.852851 1.517287 2.415871
v -1.852850 1.517287 -0.750077
vn 0.0000 -1.0000 0.0000
vn 0.0000 1.0000 0.0000
vn 1.0000 0.0000 0.0000
vn -0.0000 -0.0000 1.0000
vn -1.0000 -0.0000 -0.0000
vn 0.0000 0.0000 -1.0000
vt 0.0000 -1.0000 0.0000
vt 0.0000 1.0000 0.0000
vt 1.0000 0.0000 0.0000
vt -0.0000 -0.0000 1.0000
vt -1.0000 -0.0000 -0.0000
vt 0.0000 0.0000 -1.0000
usemtl Material
s off
f 9/7/7 10/7/7 11/7/7 12/7/7
f 13/8/8 16/8/8 15/8/8 14/8/8
f 9/9/9 13/9/9 14/9/9 10/9/9
f 10/10/10 14/10/10 15/10/10 11/10/10
f 11/11/11 15/11/11 16/11/11 12/11/11
f 13/12/12 9/12/12 12/12/12 16/12/12
